<svg id="visual" viewBox="0 0 1920 200" width="1920" height="200" xmlns="http://www.w3.org/2000/svg" xmlns:xlink="http://www.w3.org/1999/xlink" version="1.1"><path d="M0 62L26.7 62.7C53.3 63.3 106.7 64.7 160 66.8C213.3 69 266.7 72 320 72C373.3 72 426.7 69 480 66.8C533.3 64.7 586.7 63.3 640 64.7C693.3 66 746.7 70 800 70.8C853.3 71.7 906.7 69.3 960 65.7C1013.3 62 1066.7 57 1120 56.3C1173.3 55.7 1226.7 59.3 1280 61.8C1333.3 64.3 1386.7 65.7 1440 64.5C1493.3 63.3 1546.7 59.7 1600 61.2C1653.3 62.7 1706.7 69.3 1760 68.8C1813.3 68.3 1866.7 60.7 1893.3 56.8L1920 53L1920 201L1893.3 201C1866.7 201 1813.3 201 1760 201C1706.7 201 1653.3 201 1600 201C1546.7 201 1493.3 201 1440 201C1386.7 201 1333.3 201 1280 201C1226.7 201 1173.3 201 1120 201C1066.7 201 1013.3 201 960 201C906.7 201 853.3 201 800 201C746.7 201 693.3 201 640 201C586.7 201 533.3 201 480 201C426.7 201 373.3 201 320 201C266.7 201 213.3 201 160 201C106.7 201 53.3 201 26.7 201L0 201Z" fill="#fa7268"></path><path d="M0 78L26.7 82.3C53.3 86.7 106.7 95.3 160 95.5C213.3 95.7 266.7 87.3 320 84.5C373.3 81.7 426.7 84.3 480 89C533.3 93.7 586.7 100.3 640 102.3C693.3 104.3 746.7 101.7 800 97.5C853.3 93.3 906.7 87.7 960 86.5C1013.3 85.3 1066.7 88.7 1120 92.5C1173.3 96.3 1226.7 100.7 1280 103.5C1333.3 106.3 1386.7 107.7 1440 104C1493.3 100.3 1546.7 91.7 1600 90C1653.3 88.3 1706.7 93.7 1760 97C1813.3 100.3 1866.7 101.7 1893.3 102.3L1920 103L1920 201L1893.3 201C1866.7 201 1813.3 201 1760 201C1706.7 201 1653.3 201 1600 201C1546.7 201 1493.3 201 1440 201C1386.7 201 1333.3 201 1280 201C1226.7 201 1173.3 201 1120 201C1066.7 201 1013.3 201 960 201C906.7 201 853.3 201 800 201C746.7 201 693.3 201 640 201C586.7 201 533.3 201 480 201C426.7 201 373.3 201 320 201C266.7 201 213.3 201 160 201C106.7 201 53.3 201 26.7 201L0 201Z" fill="#eb5967"></path><path d="M0 122L26.7 126.3C53.3 130.7 106.7 139.3 160 137.8C213.3 136.3 266.7 124.7 320 119.2C373.3 113.7 426.7 114.3 480 117.2C533.3 120 586.7 125 640 128.5C693.3 132 746.7 134 800 131.8C853.3 129.7 906.7 123.3 960 119.8C1013.3 116.3 1066.7 115.7 1120 115.5C1173.3 115.3 1226.7 115.7 1280 118.2C1333.3 120.7 1386.7 125.3 1440 125.8C1493.3 126.3 1546.7 122.7 1600 121.8C1653.3 121 1706.7 123 1760 122.8C1813.3 122.7 1866.7 120.3 1893.3 119.2L1920 118L1920 201L1893.3 201C1866.7 201 1813.3 201 1760 201C1706.7 201 1653.3 201 1600 201C1546.7 201 1493.3 201 1440 201C1386.7 201 1333.3 201 1280 201C1226.7 201 1173.3 201 1120 201C1066.7 201 1013.3 201 960 201C906.7 201 853.3 201 800 201C746.7 201 693.3 201 640 201C586.7 201 533.3 201 480 201C426.7 201 373.3 201 320 201C266.7 201 213.3 201 160 201C106.7 201 53.3 201 26.7 201L0 201Z" fill="#da3f67"></path><path d="M0 157L26.7 155.2C53.3 153.3 106.7 149.7 160 147.8C213.3 146 266.7 146 320 148.8C373.3 151.7 426.7 157.3 480 158.2C533.3 159 586.7 155 640 153.5C693.3 152 746.7 153 800 154.8C853.3 156.7 906.7 159.3 960 160.8C1013.3 162.3 1066.7 162.7 1120 164.8C1173.3 167 1226.7 171 1280 169.5C1333.3 168 1386.7 161 1440 160.8C1493.3 160.7 1546.7 167.3 1600 167.8C1653.3 168.3 1706.7 162.7 1760 162.2C1813.3 161.7 1866.7 166.3 1893.3 168.7L1920 171L1920 201L1893.3 201C1866.7 201 1813.3 201 1760 201C1706.7 201 1653.3 201 1600 201C1546.7 201 1493.3 201 1440 201C1386.7 201 1333.3 201 1280 201C1226.7 201 1173.3 201 1120 201C1066.7 201 1013.3 201 960 201C906.7 201 853.3 201 800 201C746.7 201 693.3 201 640 201C586.7 201 533.3 201 480 201C426.7 201 373.3 201 320 201C266.7 201 213.3 201 160 201C106.7 201 53.3 201 26.7 201L0 201Z" fill="#c62368"></path></svg>